<svg xmlns="http://www.w3.org/2000/svg" width="784" height="158" viewBox="0 0 784 158" fill="none"><path d="M329.731 155.14L343.293 113.686H350.044L363.606 155.14H359.638L356.085 144.125H337.252L333.699 155.14H329.731ZM338.318 140.691H355.019L347.024 115.936H346.313L338.318 140.691Z" fill="#2F3634"></path><path d="M394.633 155.14V113.686H419.683V117.121H398.423V132.637H418.025V136.071H398.423V151.706H419.92V155.14H394.633Z" fill="#2F3634"></path><path d="M452.514 155.14V113.686H468.741C471.307 113.686 473.557 114.12 475.492 114.989C477.466 115.857 479.005 117.121 480.111 118.779C481.256 120.398 481.828 122.372 481.828 124.701V125.293C481.828 128.096 481.157 130.307 479.815 131.926C478.472 133.505 476.893 134.551 475.077 135.065V135.775C476.459 135.815 477.624 136.249 478.571 137.078C479.519 137.907 479.992 139.23 479.992 141.046V155.14H476.202V141.46C476.202 138.855 474.821 137.552 472.057 137.552H456.304V155.14H452.514ZM456.304 134.117H468.385C471.465 134.117 473.834 133.406 475.492 131.985C477.189 130.524 478.038 128.452 478.038 125.767V125.471C478.038 122.786 477.209 120.733 475.551 119.312C473.932 117.851 471.544 117.121 468.385 117.121H456.304V134.117Z" fill="#2F3634"></path><path d="M528.782 155.969C523.926 155.969 520.057 154.548 517.175 151.706C514.293 148.824 512.852 144.619 512.852 139.092V129.735C512.852 124.208 514.293 120.023 517.175 117.18C520.057 114.298 523.926 112.857 528.782 112.857C533.638 112.857 537.507 114.298 540.389 117.18C543.271 120.023 544.712 124.208 544.712 129.735V139.092C544.712 144.619 543.271 148.824 540.389 151.706C537.507 154.548 533.638 155.969 528.782 155.969ZM528.782 152.535C532.651 152.535 535.632 151.37 537.724 149.041C539.856 146.711 540.922 143.434 540.922 139.21V129.616C540.922 125.392 539.856 122.115 537.724 119.786C535.632 117.456 532.651 116.292 528.782 116.292C524.952 116.292 521.972 117.456 519.84 119.786C517.708 122.115 516.642 125.392 516.642 129.616V139.21C516.642 143.434 517.708 146.711 519.84 149.041C521.972 151.37 524.952 152.535 528.782 152.535Z" fill="#2F3634"></path><path d="M586.391 155.14V117.121H572.533V113.686H604.039V117.121H590.181V155.14H586.391Z" fill="#2F3634"></path><path d="M635.064 155.14V113.686H660.114V117.121H638.854V132.637H658.456V136.071H638.854V151.706H660.351V155.14H635.064Z" fill="#2F3634"></path><path d="M707.632 155.969C702.776 155.969 698.887 154.548 695.965 151.706C693.083 148.824 691.642 144.619 691.642 139.092V129.735C691.642 124.208 693.083 120.023 695.965 117.18C698.887 114.298 702.776 112.857 707.632 112.857C712.448 112.857 716.12 114.219 718.647 116.943C721.213 119.628 722.496 123.299 722.496 127.958V128.254H718.706V127.84C718.706 124.444 717.798 121.681 715.982 119.549C714.205 117.377 711.422 116.292 707.632 116.292C703.802 116.292 700.802 117.456 698.63 119.786C696.498 122.115 695.432 125.392 695.432 129.616V139.21C695.432 143.434 696.498 146.711 698.63 149.041C700.802 151.37 703.802 152.535 707.632 152.535C711.422 152.535 714.205 151.469 715.982 149.337C717.798 147.165 718.706 144.382 718.706 140.987V140.098H722.496V140.868C722.496 145.527 721.213 149.218 718.647 151.943C716.12 154.627 712.448 155.969 707.632 155.969Z" fill="#2F3634"></path><path d="M755.164 155.14V113.686H758.954V132.637H780.036V113.686H783.826V155.14H780.036V136.071H758.954V155.14H755.164Z" fill="#2F3634"></path><path d="M78.5483 0.744141C82.0181 0.744141 85.1643 2.81315 86.5562 6.00391L124.21 92.1211L154.734 116.198L185.295 92.083L222.93 6.00391C224.341 2.81311 227.468 0.744141 230.938 0.744141H309.487L306.227 3.33594L189.852 95.9121L155.973 155.09L154.734 157.256L153.495 155.09L119.596 95.873L3.25928 3.33594L-0.000488281 0.744141H78.5483ZM155.611 122.929L154.734 123.625L153.857 122.929L131.817 105.543L154.734 145.575L177.65 105.543L155.611 122.929ZM346.934 43.2373H391.403V13.1758H406.23V88.0547H391.403V57.9932H346.934V88.0547H332.108V13.1758H346.934V43.2373ZM502.141 27.8076H442.858V43.2373H487.327V57.9932H442.858V73.4229H502.141V88.0547H428.032V13.1758H502.141V27.8076ZM535.838 51.917L558.246 74.5439L580.307 52.2529V13.1758H595.134V54.9551H595.122C595.122 57.0969 594.567 58.6658 592.891 60.3594L565.48 88.0547H550.654L523.243 60.3594C521.567 58.6658 521.012 57.0969 521.012 54.9551V13.1758H535.838V51.917ZM691.036 27.8076H631.741V43.2373H676.209V57.9932H631.741V73.4229H691.036V88.0547H616.926V13.1758H691.036V27.8076ZM776.532 13.1758C780.771 13.1758 784.001 16.438 784.001 20.7217V88.0547H769.186V27.8076H724.717V88.0547H709.891V20.7217C709.891 16.4381 713.12 13.1758 717.249 13.1758H776.532ZM230.918 6.60352C229.756 6.60369 228.688 7.30005 228.211 8.38281L194.981 84.3857L292.767 6.60352H230.918ZM16.7192 6.60352L114.476 84.3623L81.2563 8.38281C80.7797 7.29985 79.7304 6.60352 78.5483 6.60352H16.7192Z" fill="#2F3634"></path></svg>